<svg width="71" height="73" viewBox="0 0 71 73" fill="none" xmlns="http://www.w3.org/2000/svg">
<path d="M39.4749 72.3816C33.4784 72.3816 28.1168 71.0889 23.3902 68.5033C18.6636 65.9178 14.9246 62.2436 12.2438 57.4807C9.56304 52.7179 8.22266 47.1386 8.22266 40.6747C8.22266 34.2108 9.56304 28.6315 12.2438 23.8687C14.9246 19.1058 18.6636 15.4316 23.3902 12.8461C28.1168 10.2605 33.5489 8.96777 39.616 8.96777C45.683 8.96777 51.0445 10.2605 55.7712 12.8461C60.4273 15.4316 64.0957 19.1058 66.7765 23.8687C69.4572 28.6315 70.7976 34.2108 70.7976 40.6747C70.7976 47.1386 69.4572 52.7179 66.7765 57.4807C64.0957 62.2436 60.3567 65.9178 55.7006 68.5033C50.9034 71.0889 45.5419 72.3816 39.4749 72.3816Z" fill="#575757"/>
<path d="M32.8887 3.80859C50.6384 3.80859 65.0272 18.1975 65.0273 35.9473C65.0273 53.6971 50.6385 68.0859 32.8887 68.0859C15.139 68.0858 0.75 53.697 0.75 35.9473C0.750115 18.1976 15.139 3.80872 32.8887 3.80859Z" fill="url(#paint0_linear_1_82070)" stroke="#575757" stroke-width="1.5"/>
<path d="M34.5445 45.1804C40.0472 45.1804 44.4211 40.7905 44.4211 35.4251C44.4211 30.0598 39.9766 25.6699 34.5445 25.6699C29.1124 25.6699 24.668 30.0598 24.668 35.4251C24.668 40.7905 29.0419 45.1804 34.5445 45.1804Z" fill="#343439"/>
<path d="M53.3047 1.80859C55.399 -0.259929 59.0344 0.224754 61.4141 2.5752C63.7944 4.92634 64.2905 8.52818 62.1904 10.6025L52.8779 19.8008C50.7837 21.8688 47.1481 21.3842 44.7686 19.0342C42.3882 16.683 41.892 13.0802 43.9922 11.0059L53.3047 1.80859Z" fill="white" stroke="#575757" stroke-miterlimit="10"/>
<defs>
<linearGradient id="paint0_linear_1_82070" x1="51.6719" y1="57.5824" x2="13.5912" y2="14.5067" gradientUnits="userSpaceOnUse">
<stop stop-color="#44FFB2"/>
<stop offset="0.525" stop-color="#617AFF"/>
<stop offset="1" stop-color="#855EFF"/>
</linearGradient>
</defs>
</svg>
