<svg width="40" height="40" viewBox="0 0 40 40" fill="none" xmlns="http://www.w3.org/2000/svg">
<g clip-path="url(#clip0_2025_4342)">
<g clip-path="url(#clip1_2025_4342)">
<mask id="mask0_2025_4342" style="mask-type:alpha" maskUnits="userSpaceOnUse" x="22" y="8" width="6" height="6">
<path d="M22.3516 8V13.7759L27.3615 10.8922L22.3516 8Z" fill="white"/>
</mask>
<g mask="url(#mask0_2025_4342)">
<rect x="6.61328" y="6.65381" width="27.3005" height="26.9067" fill="#464648"/>
</g>
<mask id="mask1_2025_4342" style="mask-type:alpha" maskUnits="userSpaceOnUse" x="27" y="10" width="6" height="7">
<path opacity="0.9" d="M27.3613 10.892V16.6678L32.3712 13.776L27.3613 10.892Z" fill="white"/>
</mask>
<g mask="url(#mask1_2025_4342)">
<rect x="6.61328" y="6.65381" width="27.3005" height="26.9067" fill="#464648"/>
</g>
<mask id="mask2_2025_4342" style="mask-type:alpha" maskUnits="userSpaceOnUse" x="22" y="13" width="6" height="7">
<path opacity="0.8" d="M22.3516 13.7754V19.5508L27.3615 16.6672L22.3516 13.7754Z" fill="white"/>
</mask>
<g mask="url(#mask2_2025_4342)">
<rect x="6.61328" y="6.65393" width="27.3005" height="26.9067" fill="#464648"/>
</g>
<mask id="mask3_2025_4342" style="mask-type:alpha" maskUnits="userSpaceOnUse" x="27" y="16" width="6" height="7">
<path opacity="0.8" d="M27.3613 16.6672V22.4427L32.3712 19.5509L27.3613 16.6672Z" fill="white"/>
</mask>
<g mask="url(#mask3_2025_4342)">
<rect x="6.61328" y="6.65393" width="27.3005" height="26.9067" fill="#464648"/>
</g>
<mask id="mask4_2025_4342" style="mask-type:alpha" maskUnits="userSpaceOnUse" x="22" y="19" width="6" height="7">
<path opacity="0.8" d="M22.3516 19.5518V25.3272L27.3615 22.4436L22.3516 19.5518Z" fill="white"/>
</mask>
<g mask="url(#mask4_2025_4342)">
<rect x="6.61328" y="6.65393" width="27.3005" height="26.9067" fill="#464648"/>
</g>
<mask id="mask5_2025_4342" style="mask-type:alpha" maskUnits="userSpaceOnUse" x="27" y="22" width="6" height="7">
<path d="M27.3613 22.4424V28.2178L32.3712 25.326L27.3613 22.4424Z" fill="white"/>
</mask>
<g mask="url(#mask5_2025_4342)">
<rect x="6.61328" y="6.65405" width="27.3005" height="26.9067" fill="#464648"/>
</g>
<mask id="mask6_2025_4342" style="mask-type:alpha" maskUnits="userSpaceOnUse" x="9" y="13" width="6" height="7">
<path opacity="0.4" d="M9.40234 13.5806V19.356L14.4123 16.4642L9.40234 13.5806Z" fill="white"/>
</mask>
<g mask="url(#mask6_2025_4342)">
<rect x="6.61426" y="6.65405" width="27.3005" height="26.9067" fill="#464648"/>
</g>
<mask id="mask7_2025_4342" style="mask-type:alpha" maskUnits="userSpaceOnUse" x="15" y="15" width="6" height="7">
<path opacity="0.2" d="M15.7256 15.7277V21.5031L20.7269 18.6195L15.7256 15.7277Z" fill="white"/>
</mask>
<g mask="url(#mask7_2025_4342)">
<rect x="6.61426" y="6.65381" width="27.3004" height="26.9067" fill="#464648"/>
</g>
<mask id="mask8_2025_4342" style="mask-type:alpha" maskUnits="userSpaceOnUse" x="12" y="19" width="6" height="7">
<path opacity="0.3" d="M12.0098 19.381V25.1564L17.0197 22.2646L12.0098 19.381Z" fill="white"/>
</mask>
<g mask="url(#mask8_2025_4342)">
<rect x="6.61426" y="6.65356" width="27.3004" height="26.9067" fill="#464648"/>
</g>
<mask id="mask9_2025_4342" style="mask-type:alpha" maskUnits="userSpaceOnUse" x="15" y="23" width="6" height="7">
<path opacity="0.9" d="M15.3105 23.7393V29.5147L20.3119 26.6229L15.3105 23.7393Z" fill="white"/>
</mask>
<g mask="url(#mask9_2025_4342)">
<rect x="6.61328" y="6.65393" width="27.3005" height="26.9067" fill="#464648"/>
</g>
<mask id="mask10_2025_4342" style="mask-type:alpha" maskUnits="userSpaceOnUse" x="22" y="26" width="6" height="6">
<path opacity="0.7" d="M22.3096 26.2252V31.9998L27.3109 29.108L22.3096 26.2252Z" fill="white"/>
</mask>
<g mask="url(#mask10_2025_4342)">
<rect x="6.61328" y="6.65393" width="27.3005" height="26.9067" fill="#464648"/>
</g>
<mask id="mask11_2025_4342" style="mask-type:alpha" maskUnits="userSpaceOnUse" x="16" y="12" width="6" height="7">
<path opacity="0.9" d="M16.5557 12.8768V18.6523L21.557 15.7686L16.5557 12.8768Z" fill="white"/>
</mask>
<g mask="url(#mask11_2025_4342)">
<rect x="6.61328" y="6.65393" width="27.3004" height="26.9067" fill="#464648"/>
</g>
<mask id="mask12_2025_4342" style="mask-type:alpha" maskUnits="userSpaceOnUse" x="17" y="8" width="6" height="6">
<path opacity="0.8" d="M22.3517 8V13.7759L17.3418 10.8922L22.3517 8Z" fill="white"/>
</mask>
<g mask="url(#mask12_2025_4342)">
<rect x="6.61328" y="6.65381" width="27.3004" height="26.9067" fill="#464648"/>
</g>
<mask id="mask13_2025_4342" style="mask-type:alpha" maskUnits="userSpaceOnUse" x="11" y="10" width="6" height="7">
<path opacity="0.6" d="M16.5587 10.4541V16.2282L11.5488 13.3377L16.5587 10.4541Z" fill="white"/>
</mask>
<g mask="url(#mask13_2025_4342)">
<rect x="6.61426" y="6.65381" width="27.3005" height="26.9067" fill="#464648"/>
</g>
<mask id="mask14_2025_4342" style="mask-type:alpha" maskUnits="userSpaceOnUse" x="16" y="13" width="6" height="7">
<path opacity="0.6" d="M21.5666 13.3138V19.0893L16.5566 16.1975L21.5666 13.3138Z" fill="white"/>
</mask>
<g mask="url(#mask14_2025_4342)">
<rect x="6.61328" y="6.65381" width="27.3005" height="26.9067" fill="#464648"/>
</g>
<mask id="mask15_2025_4342" style="mask-type:alpha" maskUnits="userSpaceOnUse" x="10" y="15" width="6" height="7">
<path opacity="0.95" d="M15.6984 15.7277V21.5031L10.6885 18.6195L15.6984 15.7277Z" fill="white"/>
</mask>
<g mask="url(#mask15_2025_4342)">
<rect x="6.61328" y="6.65381" width="27.3004" height="26.9067" fill="#464648"/>
</g>
<mask id="mask16_2025_4342" style="mask-type:alpha" maskUnits="userSpaceOnUse" x="17" y="19" width="6" height="7">
<path opacity="0.6" d="M22.35 19.5518V25.3272L17.3486 22.4436L22.35 19.5518Z" fill="white"/>
</mask>
<g mask="url(#mask16_2025_4342)">
<rect x="6.61328" y="6.65393" width="27.3004" height="26.9067" fill="#464648"/>
</g>
<mask id="mask17_2025_4342" style="mask-type:alpha" maskUnits="userSpaceOnUse" x="7" y="20" width="6" height="7">
<path opacity="0.55" d="M12.0095 20.8962V26.6717L7 23.7794L12.0095 20.8962Z" fill="white"/>
</mask>
<g mask="url(#mask17_2025_4342)">
<rect x="6.61426" y="6.65381" width="27.3005" height="26.9067" fill="#464648"/>
</g>
<mask id="mask18_2025_4342" style="mask-type:alpha" maskUnits="userSpaceOnUse" x="27" y="13" width="6" height="7">
<path d="M32.3712 13.7751V19.5506L27.3613 16.6669L32.3712 13.7751Z" fill="white"/>
</mask>
<g mask="url(#mask18_2025_4342)">
<rect x="6.61426" y="6.65381" width="27.3005" height="26.9067" fill="#464648"/>
</g>
<mask id="mask19_2025_4342" style="mask-type:alpha" maskUnits="userSpaceOnUse" x="22" y="16" width="6" height="7">
<path opacity="0.95" d="M27.3615 16.6674V22.4428L22.3516 19.551L27.3615 16.6674Z" fill="white"/>
</mask>
<g mask="url(#mask19_2025_4342)">
<rect x="6.61426" y="6.65405" width="27.3004" height="26.9067" fill="#464648"/>
</g>
<mask id="mask20_2025_4342" style="mask-type:alpha" maskUnits="userSpaceOnUse" x="27" y="19" width="6" height="7">
<path opacity="0.9" d="M32.3712 19.5515V25.3269L27.3613 22.4433L32.3712 19.5515Z" fill="white"/>
</mask>
<g mask="url(#mask20_2025_4342)">
<rect x="6.61426" y="6.65381" width="27.3005" height="26.9067" fill="#464648"/>
</g>
<mask id="mask21_2025_4342" style="mask-type:alpha" maskUnits="userSpaceOnUse" x="22" y="22" width="6" height="7">
<path opacity="0.7" d="M27.3615 22.4424V28.2178L22.3516 25.326L27.3615 22.4424Z" fill="white"/>
</mask>
<g mask="url(#mask21_2025_4342)">
<rect x="6.61426" y="6.65405" width="27.3004" height="26.9067" fill="#464648"/>
</g>
<mask id="mask22_2025_4342" style="mask-type:alpha" maskUnits="userSpaceOnUse" x="16" y="24" width="6" height="7">
<path opacity="0.4" d="M21.2423 24.8491V30.6246L16.2324 27.7409L21.2423 24.8491Z" fill="white"/>
</mask>
<g mask="url(#mask22_2025_4342)">
<rect x="6.61328" y="6.65381" width="27.3005" height="26.9067" fill="#464648"/>
</g>
<mask id="mask23_2025_4342" style="mask-type:alpha" maskUnits="userSpaceOnUse" x="22" y="10" width="6" height="7">
<path d="M27.3615 10.8918V16.6677L22.3516 13.7759L27.3615 10.8918Z" fill="white"/>
</mask>
<g mask="url(#mask23_2025_4342)">
<rect x="6.61426" y="6.65381" width="27.3004" height="26.9067" fill="#464648"/>
</g>
</g>
</g>
<defs>
<clipPath id="clip0_2025_4342">
<rect width="40" height="40" rx="20" fill="white"/>
</clipPath>
<clipPath id="clip1_2025_4342">
<rect width="40" height="40" fill="white"/>
</clipPath>
</defs>
</svg>
