<svg width="64" height="64" viewBox="0 0 64 64" fill="none" xmlns="http://www.w3.org/2000/svg">
<rect width="64" height="64" rx="32" fill="#464648"/>
<path d="M34.2261 12V21.6267L42.1322 16.8205L34.2261 12Z" fill="white"/>
<path opacity="0.9" d="M42.1328 16.8203V26.447L50.0389 21.6272L42.1328 16.8203Z" fill="white"/>
<path opacity="0.8" d="M34.2261 21.6276V31.2535L42.1322 26.4473L34.2261 21.6276Z" fill="white"/>
<path opacity="0.8" d="M42.1328 26.4512V36.0772L50.0389 31.2574L42.1328 26.4512Z" fill="white"/>
<path opacity="0.8" d="M34.2261 31.2517V40.8777L42.1322 36.0715L34.2261 31.2517Z" fill="white"/>
<path d="M42.1328 36.0687V45.6947L50.0389 40.8749L42.1328 36.0687Z" fill="white"/>
<path opacity="0.4" d="M13.7886 21.2994V30.9254L21.6947 26.1056L13.7886 21.2994Z" fill="white"/>
<path opacity="0.2" d="M23.7705 24.8827V34.5087L31.6631 29.7025L23.7705 24.8827Z" fill="white"/>
<path opacity="0.3" d="M17.9033 30.9695V40.5955L25.8094 35.7757L17.9033 30.9695Z" fill="white"/>
<path opacity="0.9" d="M23.1157 38.2279V47.8539L31.0083 43.0341L23.1157 38.2279Z" fill="white"/>
<path opacity="0.7" d="M34.1621 42.3755V52L42.0547 47.1802L34.1621 42.3755Z" fill="white"/>
<path opacity="0.9" d="M25.083 20.1279V29.7539L32.9756 24.9477L25.083 20.1279Z" fill="white"/>
<path opacity="0.8" d="M34.2279 12V21.6267L26.3218 16.8205L34.2279 12Z" fill="white"/>
<path opacity="0.6" d="M25.0873 16.0919V25.7158L17.1812 20.8981L25.0873 16.0919Z" fill="white"/>
<path opacity="0.6" d="M32.9891 20.8564V30.4824L25.083 25.6626L32.9891 20.8564Z" fill="white"/>
<path opacity="0.95" d="M23.7323 24.8827V34.5087L15.8262 29.7025L23.7323 24.8827Z" fill="white"/>
<path opacity="0.6" d="M34.229 31.2517V40.8777L26.3364 36.0715L34.229 31.2517Z" fill="white"/>
<path opacity="0.55" d="M17.9054 33.4962V43.1222L10 38.3017L17.9054 33.4962Z" fill="white"/>
<path d="M50.0355 21.6276V31.2535L42.1294 26.4473L50.0355 21.6276Z" fill="white"/>
<path opacity="0.95" d="M42.1322 26.4512V36.0772L34.2261 31.2574L42.1322 26.4512Z" fill="white"/>
<path opacity="0.9" d="M50.0355 31.2517V40.8777L42.1294 36.0715L50.0355 31.2517Z" fill="white"/>
<path opacity="0.7" d="M42.1322 36.0687V45.6947L34.2261 40.8749L42.1322 36.0687Z" fill="white"/>
<path opacity="0.4" d="M32.4769 40.0786V49.7046L24.5708 44.8984L32.4769 40.0786Z" fill="white"/>
<path d="M42.1322 16.8203V26.447L34.2261 21.6272L42.1322 16.8203Z" fill="white"/>
</svg>
