<svg width="26" height="32" viewBox="0 0 26 32" fill="none" xmlns="http://www.w3.org/2000/svg">
<path d="M11.4491 1.89973C11.5113 2.25304 11.4699 2.61682 11.3298 2.94709C11.1897 3.27737 10.957 3.55999 10.6597 3.76078L11.3952 7.92426C11.7884 7.89105 12.1838 7.87501 12.5803 7.87642C13.3302 7.87735 14.0788 7.937 14.8194 8.05484C16.2857 8.28073 17.6993 8.73963 19.0089 9.40834L21.4416 5.19476C21.2208 4.88903 21.11 4.51759 21.1271 4.14085C21.1441 3.76412 21.2882 3.40424 21.5357 3.11974C21.7833 2.83524 22.1198 2.64286 22.4906 2.57387C22.8613 2.50489 23.2445 2.56336 23.5778 2.73978C23.9111 2.91619 24.175 3.20019 24.3264 3.54557C24.4779 3.89095 24.508 4.2774 24.4119 4.64209C24.3159 5.00678 24.0993 5.32824 23.7974 5.55421C23.4954 5.78019 23.126 5.89737 22.749 5.88672L20.2877 10.1499C20.7347 10.442 21.1658 10.7607 21.5786 11.1048C23.3901 12.6031 24.7312 14.5919 25.4413 16.8328C22.2515 17.9377 18.9065 18.5288 15.5313 18.584C14.781 18.585 14.0313 18.5469 13.285 18.4698C10.5903 18.138 7.95769 17.4187 5.46868 16.3342C4.03343 15.7392 2.63801 15.0524 1.29111 14.2779C2.35563 12.3236 3.95026 10.7095 5.89153 9.62132C7.1545 8.90832 8.51884 8.40626 9.93084 8.12916L9.20721 4.03277C8.87988 3.95804 8.57893 3.79597 8.3364 3.56379C8.09387 3.33161 7.91883 3.03802 7.82991 2.71426C7.74098 2.3905 7.74151 2.04868 7.83142 1.7252C7.92133 1.40171 8.09727 1.10865 8.34052 0.87722C8.58376 0.645786 8.8852 0.484634 9.21276 0.410913C9.54031 0.337193 9.88173 0.353665 10.2007 0.458575C10.5196 0.563485 10.8041 0.752907 11.024 1.00668C11.2438 1.26046 11.3907 1.56909 11.4491 1.89973Z" fill="#AEFE49"/>
<path d="M0.904952 15.0787C0.577441 16.2343 0.418165 17.4311 0.432043 18.6321C0.403077 20.1234 0.91806 21.5742 1.88077 22.7134C2.68022 23.5318 3.63616 24.181 4.69169 24.6224C5.80941 25.1182 6.9685 25.5149 8.15561 25.808C9.5312 26.1586 10.9286 26.4173 12.3385 26.5823C13.4759 26.7135 14.62 26.7785 15.765 26.7768C18.1085 26.7768 21.3012 26.4895 23.204 25.1202C24.3652 24.2239 25.1585 22.9338 25.4342 21.493C25.7006 20.2979 25.7932 19.0705 25.7089 17.8489C26.2757 20.5641 25.7877 23.3932 24.344 25.7616C23.6094 26.9603 22.6633 28.0157 21.5519 28.8767C19.2019 30.6801 16.3186 31.6503 13.3564 31.6341C12.6065 31.6332 11.8579 31.5735 11.1173 31.4557C9.40905 31.1897 7.76488 30.6096 6.26798 29.7447C4.85509 28.932 3.60647 27.8625 2.5864 26.5912C1.59458 25.3649 0.858422 23.9523 0.421337 22.4368C-0.275176 20.0021 -0.104182 17.4011 0.904952 15.0787Z" fill="#AEFE49"/>
<path d="M4.00849 22.3469C6.58227 24.3166 11.6631 24.7049 11.6631 24.7049L3.79688 16.5699C3.79688 16.5699 1.43471 20.3771 4.00849 22.3469Z" fill="#AEFE49"/>
<path d="M15.9688 24.9789C15.9688 24.9789 21.2943 25.1997 22.9891 23.4676C24.6839 21.7347 23.087 18.3086 23.087 18.3086L15.9688 24.9789Z" fill="#AEFE49"/>
</svg>
