<svg width="30" height="36" viewBox="0 0 30 36" fill="none" xmlns="http://www.w3.org/2000/svg">
<path d="M14.6024 8.74912C15.443 8.75016 16.2822 8.81704 17.1124 8.94913C19.9018 9.37887 22.5214 10.5609 24.6894 12.3681C26.7199 14.0477 28.2233 16.277 29.0194 18.7891C25.4437 20.0277 21.6939 20.6903 17.9104 20.7521C17.0694 20.7532 16.2289 20.7105 15.3924 20.6241C12.3716 20.2522 9.42049 19.4459 6.63036 18.2301C5.02146 17.5632 3.45721 16.7933 1.94736 15.9251C3.14067 13.7343 4.92822 11.9249 7.10435 10.7051C9.39173 9.41382 11.9757 8.73975 14.6024 8.74912ZM1.51636 16.8161C1.14795 18.1136 0.968773 19.4575 0.984356 20.8061C0.951885 22.4778 1.52917 24.1041 2.60835 25.3811C3.50453 26.2986 4.57612 27.0263 5.75936 27.5211C7.0123 28.0769 8.31162 28.5216 9.64235 28.8501C11.1844 29.2431 12.7508 29.5331 14.3314 29.7181C15.6064 29.8653 16.8889 29.938 18.1724 29.9361C20.7994 29.9361 24.3784 29.6141 26.5114 28.0791C27.8131 27.0744 28.7023 25.6282 29.0114 24.0131C29.3101 22.6734 29.4138 21.2975 29.3194 19.9281C29.9548 22.9718 29.4077 26.1432 27.7894 28.7981C26.9658 30.1418 25.9053 31.325 24.6594 32.2901C22.0251 34.3118 18.7929 35.3992 15.4724 35.3811C14.6318 35.3801 13.7925 35.3132 12.9624 35.1811C11.0475 34.883 9.20435 34.2327 7.52636 33.2631C5.94252 32.3521 4.54284 31.1532 3.39935 29.7281C2.28755 28.3534 1.46232 26.7699 0.972355 25.0711C0.190914 22.3396 0.383581 19.4213 1.51735 16.8161H1.51636Z" fill="#00E100"/>
<path d="M13.574 27.6143C13.574 27.6143 7.87845 27.179 4.99328 24.971C2.10811 22.7629 4.75606 18.4951 4.75606 18.4951L13.574 27.6143ZM26.2702 26.2274C24.3704 28.169 18.4006 27.9215 18.4006 27.9215L26.38 20.4442C26.38 20.4442 28.1701 24.2847 26.2702 26.2274Z" fill="#00E100"/>
<path d="M13.3342 2.05012C13.404 2.44617 13.3576 2.85397 13.2006 3.2242C13.0435 3.59443 12.7826 3.91124 12.4493 4.13633L14.7279 17.0349L13.0967 17.3231L10.8211 4.44122C10.4542 4.35746 10.1169 4.17577 9.84498 3.9155C9.5731 3.65524 9.37688 3.32612 9.2772 2.96319C9.17752 2.60026 9.17811 2.21709 9.2789 1.85447C9.37969 1.49185 9.57692 1.16333 9.84959 0.9039C10.1223 0.644465 10.4602 0.463817 10.8274 0.381177C11.1945 0.298537 11.5773 0.317002 11.9348 0.434605C12.2923 0.552207 12.6113 0.764547 12.8577 1.04903C13.1041 1.3335 13.2688 1.67947 13.3342 2.05012Z" fill="#00E100"/>
<path d="M17.7068 17.5721L24.5358 5.74389C24.2883 5.40117 24.164 4.9848 24.1831 4.56248C24.2023 4.14016 24.3637 3.73675 24.6412 3.41783C24.9188 3.09891 25.296 2.88325 25.7116 2.80592C26.1272 2.72858 26.5568 2.79413 26.9304 2.99189C27.3041 3.18966 27.5998 3.508 27.7696 3.89517C27.9393 4.28234 27.9731 4.71555 27.8655 5.12436C27.7578 5.53317 27.515 5.89353 27.1765 6.14684C26.8381 6.40015 26.4239 6.53151 26.0013 6.51956L19.1418 18.4006L17.7068 17.5721Z" fill="#00E100"/>
</svg>
